<svg xmlns="http://www.w3.org/2000/svg" version="1.1" xmlns:xlink="http://www.w3.org/1999/xlink" xmlns:svgjs="http://svgjs.com/svgjs" width="1440" height="560" preserveAspectRatio="none" viewBox="0 0 1440 560"><g mask="url(&quot;#SvgjsMask1009&quot;)" fill="none"><path d="M-198.2 111.42C-20.13 111.89 129.29 226.32 503.33 234.62 877.37 242.92 1003.75 618.48 1204.86 631.96" stroke="rgba(51,121,194,0.58)" stroke-width="2"></path><path d="M-92.84 245.81C43.34 251.76 192.42 470.46 399.06 481.01 605.7 491.56 574.45 615.97 645.01 620.73" stroke="rgba(51,121,194,0.58)" stroke-width="2"></path><path d="M-35.83 272.33C115.39 270.66 244.62 101.69 545.3 104.33 845.99 106.97 940.68 552.63 1126.44 581.93" stroke="rgba(51,121,194,0.58)" stroke-width="2"></path><path d="M-64.76 469.83C93.62 465.2 298.86 228.59 521.5 229.03 744.14 229.47 701.97 568.4 814.63 610.52" stroke="rgba(51,121,194,0.58)" stroke-width="2"></path><path d="M-255.78 187.37C-136.72 190.13-60.91 341.77 189.96 355.37 440.83 368.97 502.59 638.17 635.7 651.22" stroke="rgba(51,121,194,0.58)" stroke-width="2"></path></g><defs><mask id="SvgjsMask1009"><rect width="1440" height="560" fill="#ffffff"></rect></mask></defs></svg>