<svg xmlns="http://www.w3.org/2000/svg" version="1.1" xmlns:xlink="http://www.w3.org/1999/xlink" xmlns:svgjs="http://svgjs.com/svgjs" width="1440" height="760" preserveAspectRatio="none" viewBox="0 0 1440 760"><g mask="url(&quot;#SvgjsMask1242&quot;)" fill="none"><rect width="1440" height="760" x="0" y="0" fill="url(#SvgjsLinearGradient1243)"></rect><path d="M1440 0L1004.3199999999999 0L1440 5.23z" fill="rgba(255, 255, 255, .1)"></path><path d="M1004.3199999999999 0L1440 5.23L1440 401.92L956.53 0z" fill="rgba(255, 255, 255, .075)"></path><path d="M956.53 0L1440 401.92L1440 464.23L488.98999999999995 0z" fill="rgba(255, 255, 255, .05)"></path><path d="M488.99 0L1440 464.23L1440 504.28000000000003L142.7 0z" fill="rgba(255, 255, 255, .025)"></path><path d="M0 760L72.06 760L0 511.62z" fill="rgba(0, 0, 0, .1)"></path><path d="M0 511.62L72.06 760L753.75 760L0 446.25z" fill="rgba(0, 0, 0, .075)"></path><path d="M0 446.25L753.75 760L865.75 760L0 220.34z" fill="rgba(0, 0, 0, .05)"></path><path d="M0 220.34000000000003L865.75 760L981.7 760L0 197.27000000000004z" fill="rgba(0, 0, 0, .025)"></path></g><defs><mask id="SvgjsMask1242"><rect width="1440" height="760" fill="#ffffff"></rect></mask><linearGradient x1="11.81%" y1="-22.37%" x2="88.19%" y2="122.37%" gradientUnits="userSpaceOnUse" id="SvgjsLinearGradient1243"><stop stop-color="#0e2a47" offset="0"></stop><stop stop-color="rgba(171, 32, 203, 1)" offset="1"></stop></linearGradient></defs></svg>