<svg xmlns="http://www.w3.org/2000/svg" version="1.1" xmlns:xlink="http://www.w3.org/1999/xlink" xmlns:svgjs="http://svgjs.com/svgjs" width="1440" height="560" preserveAspectRatio="none" viewBox="0 0 1440 560"><g mask="url(&quot;#SvgjsMask1027&quot;)" fill="none"><path d="M -539.0052324333042,68 C -467.01,123.4 -323.01,332.2 -179.00523243330417,345 C -35.01,357.8 36.99,97.6 180.99476756669583,132 C 324.99,166.4 396.99,522.6 540.9947675666958,517 C 684.99,511.4 756.99,116.4 900.9947675666958,104 C 1044.99,91.6 1153.19,452.2 1260.9947675666958,455 C 1368.8,457.8 1404.2,185.4 1440,118" stroke="rgba(73, 198, 255, 1)" stroke-width="2"></path><path d="M -116.63560282473188,68 C -44.64,151 99.36,448.4 243.36439717526812,483 C 387.36,517.6 459.36,275.2 603.3643971752681,241 C 747.36,206.8 819.36,312 963.3643971752681,312 C 1107.36,312 1179.36,203.8 1323.364397175268,241 C 1467.36,278.2 1660.04,517.8 1683.364397175268,498 C 1706.69,478.2 1488.67,213.2 1440,142" stroke="rgba(73, 198, 255, 1)" stroke-width="2"></path><path d="M -42.8602263849661,446 C 29.14,383.4 173.14,126 317.1397736150339,133 C 461.14,140 533.14,483.4 677.1397736150338,481 C 821.14,478.6 893.14,151.4 1037.1397736150338,121 C 1181.14,90.6 1253.14,325.2 1397.1397736150338,329 C 1541.14,332.8 1748.57,136.8 1757.1397736150338,140 C 1765.71,143.2 1503.43,304 1440,345" stroke="rgba(73, 198, 255, 1)" stroke-width="2"></path><path d="M -608.5380687118992,138 C -536.54,211.4 -392.54,492.2 -248.53806871189923,505 C -104.54,517.8 -32.54,233 111.46193128810077,202 C 255.46,171 327.46,344.8 471.4619312881008,350 C 615.46,355.2 687.46,196 831.4619312881008,228 C 975.46,260 1069.75,519 1191.4619312881007,510 C 1313.17,501 1390.29,248.4 1440,183" stroke="rgba(73, 198, 255, 1)" stroke-width="2"></path><path d="M -241.3603628032133,465 C -169.36,405 -25.36,168.6 118.63963719678671,165 C 262.64,161.4 334.64,443.6 478.6396371967867,447 C 622.64,450.4 694.64,197.4 838.6396371967867,182 C 982.64,166.6 1054.64,378.6 1198.6396371967867,370 C 1342.64,361.4 1510.37,124.8 1558.6396371967867,139 C 1606.91,153.2 1463.73,380.6 1440,441" stroke="rgba(73, 198, 255, 1)" stroke-width="2"></path></g><defs><mask id="SvgjsMask1027"><rect width="1440" height="560" fill="#ffffff"></rect></mask></defs></svg>